<svg id="Layer_1" enable-background="new 0 0 128 128" height="512" viewBox="0 0 128 128" width="512" xmlns="http://www.w3.org/2000/svg"><g clip-rule="evenodd" fill-rule="evenodd"><g><path d="m37.979 45.424c-.027-.543-.027-1.086-.027-1.629 0-15.289 12.402-27.692 27.691-27.692s27.691 12.403 27.691 27.692v.343c1.887-.571 3.887-.857 5.973-.857 11.632 0 21.033 9.402 21.033 21.033 0 11.632-9.401 21.063-21.033 21.063-1.057 0-2.086-.085-3.086-.229v22.834h-64.443v-22.835c-1 .144-2.028.229-3.086.229-11.631 0-21.033-9.431-21.033-21.063 0-11.631 9.402-21.033 21.033-21.033 3.344 0 6.488.772 9.287 2.144z" fill="#e9e9e8"/><path d="m37.979 45.424c-.027-.543-.027-1.086-.027-1.629 0-1.657.143-3.258.399-4.83 7.888 5.802 13.032 15.146 13.032 25.606v43.41h-19.605v-22.834c-1 .144-2.028.229-3.086.229-11.631 0-21.033-9.431-21.033-21.063 0-11.631 9.402-21.033 21.033-21.033 3.344 0 6.488.772 9.287 2.144z" fill="#f4f3f3"/><path d="m50.298 20.732c4.4-2.944 9.658-4.63 15.346-4.63 15.289 0 27.691 12.403 27.691 27.692v.343c1.887-.571 3.887-.857 5.973-.857 11.632 0 21.033 9.402 21.033 21.033 0 11.632-9.401 21.063-21.033 21.063-1.057 0-2.086-.085-3.086-.229v22.834h-14.604v-55.499c0-17.318-14.06-31.521-31.32-31.75z" fill="#dddbda"/></g><path d="m31.778 104.066h64.443v7.831h-64.443z" fill="#524b47"/></g></svg>