<?xml version="1.0" encoding="iso-8859-1"?>
<!-- Generator: Adobe Illustrator 19.0.0, SVG Export Plug-In . SVG Version: 6.00 Build 0)  -->
<svg version="1.1" id="Capa_1" xmlns="http://www.w3.org/2000/svg" xmlns:xlink="http://www.w3.org/1999/xlink" x="0px" y="0px"
	 viewBox="0 0 512.001 512.001" style="enable-background:new 0 0 512.001 512.001;" xml:space="preserve">
<path style="fill:#E9E3D5;" d="M261.746,479.391c-11.094,1.645-22.446,2.504-33.998,2.504c-42.255,0-81.842-11.407-115.869-31.291
	c5.378-19.958,15.725-37.699,29.518-51.992c-0.586,0.607-1.17,1.217-1.743,1.836h142.094L261.746,479.391z"/>
<g>
	<path style="fill:#B6B0A2;" d="M343.617,450.604c-4.985-18.499-14.274-34.758-25.671-47.828l0,0
		c-7.403-8.292-15.075-15.314-24.774-21.486l0,0c-0.665-0.483-3.936-2.465-4.988-3.08c-49.425-28.982-110.868-18.462-148.53,22.238
		c32.626,13.371,67.905,19.478,103.343,17.843c1.323,0.341,2.568,0.491,3.749,0.491c8.284,0,15,6.716,15,15v45.609
		C291.231,475.018,318.893,465.052,343.617,450.604z"/>
	<path style="fill:#B6B0A2;" d="M316.001,464.335c-7.873,3.276-15.966,6.128-24.253,8.526v-54.079
		C303.869,431.042,312.492,446.766,316.001,464.335z"/>
	<path style="fill:#B6B0A2;" d="M163.748,418.782v54.079c-8.287-2.397-16.38-5.25-24.253-8.526
		C143.004,446.766,151.627,431.042,163.748,418.782z"/>
</g>
<path style="fill:#FFB578;" d="M371.748,256.053c0-77.525-62.888-160-140-160c-63.955,0-117.891,56.568-134.627,119.88
	c-6.118-3.113-13.037-4.88-20.373-4.88c-24.853,0-45,20.147-45,45s20.147,45,45,45c1.289,0,2.561-0.067,3.822-0.173
	c1.254,25.764,15.039,50.288,39.199,64.611l0,0c68.742,40.75,155.215,40.75,223.957,0l0,0
	C382.309,342.618,394.182,294.135,371.748,256.053z"/>
<path style="fill:#F7A16E;" d="M386.748,211.053c-7.34,0-14.263,1.769-20.384,4.886c-11.088-41.957-38.495-80.878-74.267-102.41
	c0,0,38.598,45.535,38.598,132.529c0,26.598-14.236,52.252-39.294,67.106l0,0c-63.124,37.419-141.196,40.472-206.763,9.17
	c5.875,17.419,17.838,32.904,35.132,43.156c68.742,40.75,155.215,40.75,223.957,0c24.273-14.389,37.964-38.915,39.202-64.61
	c1.26,0.106,2.531,0.173,3.819,0.173c24.853,0,45-20.147,45-45S411.601,211.053,386.748,211.053z"/>
<circle style="fill:#CE795F;" cx="76.75" cy="256.05" r="15"/>
<circle style="fill:#B66652;" cx="386.75" cy="256.05" r="15"/>
<path style="fill:#596775;" d="M97.12,215.878c10.099,5.138,17.998,13.971,21.915,24.721c1.794,4.925,7.974,6.612,11.92,3.162
	c18.869-16.494,30.792-40.732,30.792-67.763c0-16.805-4.611-32.531-12.63-45.991C149.118,130.007,88.493,146.757,97.12,215.878z"/>
<path style="fill:#46525E;" d="M314.377,130.007c-8.018,13.46-12.63,29.186-12.63,45.991c0,27.031,11.923,51.269,30.792,67.763
	c3.947,3.45,10.126,1.763,11.92-3.162c3.916-10.75,11.816-19.583,21.915-24.721C375.003,146.757,314.377,130.007,314.377,130.007z"
	/>
<g>
	<rect x="101.75" y="65.998" style="fill:#E9E3D5;" width="260" height="106.95"/>
	<path style="fill:#E9E3D5;" d="M356.248,7.498c-7.253,0-245.161,0-249,0c-25.129,0-45.5,20.371-45.5,45.5s20.371,45.5,45.5,45.5
		c1.928,0,244.034,0,249,0c25.129,0,45.5-20.371,45.5-45.5S381.377,7.498,356.248,7.498z"/>
</g>
<g>
	<path style="fill:#B6B0A2;" d="M401.748,52.998c0-7.902-2.017-15.331-5.56-21.806c-9.737,2.475-16.94,11.299-16.94,21.806
		c0,12.682-10.318,23-23,23h-249c-10.507,0-19.331,7.203-21.806,16.94c6.475,3.543,13.905,5.56,21.806,5.56h44.5h80
		c55.166,0,119.422,0,124.5,0C381.377,98.498,401.748,78.127,401.748,52.998z"/>
	<path style="fill:#B6B0A2;" d="M113.748,52.998c0-4.142-3.358-7.5-7.5-7.5s-7.5,3.358-7.5,7.5c0,12.469,4.339,23.938,11.573,33
		h22.623C121.489,79.445,113.748,67.113,113.748,52.998z"/>
	<path style="fill:#B6B0A2;" d="M364.748,52.998c0-4.142-3.358-7.5-7.5-7.5s-7.5,3.358-7.5,7.5c0,14.115-7.741,26.447-19.195,33
		h22.623C360.409,76.936,364.748,65.467,364.748,52.998z"/>
	<path style="fill:#B6B0A2;" d="M311.748,45.498c-4.142,0-7.5,3.358-7.5,7.5c0,14.115-7.741,26.447-19.195,33h22.623
		c7.233-9.062,11.573-20.531,11.573-33C319.248,48.856,315.89,45.498,311.748,45.498z"/>
	<path style="fill:#B6B0A2;" d="M173.748,52.998c0-4.142-3.358-7.5-7.5-7.5s-7.5,3.358-7.5,7.5c0,12.469,4.339,23.938,11.573,33
		h22.623C181.489,79.445,173.748,67.113,173.748,52.998z"/>
</g>
<g>
	<path style="fill:#FFB578;" d="M344.835,451.081l2.552,19.996l-14.678-5.518c-4.24,5.062-12.011,5.105-16.307,0.091l0,0
		c-3.399-3.967-3.431-9.809-0.077-13.814l12.126-14.478c4.24-5.062,12.011-5.105,16.307-0.091l0,0
		C348.156,441.234,348.189,447.076,344.835,451.081z"/>
	<path style="fill:#FFB578;" d="M330.034,496.932L330.034,496.932c7.781,9.082,21.452,10.137,30.534,2.356l6.337-5.429
		c12.582-10.78,14.043-29.718,3.264-42.301l0,0c-6.812-7.951-19.132-7.882-25.855,0.144l-14.437,17.236
		C323.081,477.053,323.147,488.893,330.034,496.932z"/>
</g>
<path style="fill:#8B9BA9;" d="M487.517,342.78c-1.365-15.133-8.552-28.818-20.235-38.533c-3.179-2.643-7.899-2.215-10.552,0.96
	L355.038,426.985l44.465,35.721c1.384,1.111,3.043,1.652,4.692,1.652c2.148,0,4.28-0.919,5.763-2.695l64.547-77.35
	C484.262,372.664,488.883,357.914,487.517,342.78z"/>
<path style="fill:#596775;" d="M467.282,304.247c-3.179-2.643-7.899-2.215-10.552,0.96l-9.625,11.525l5.791,4.815
	c7.051,5.863,11.388,14.122,12.212,23.254c0.824,9.133-1.965,18.035-7.879,25.096l-69.532,83.325l11.806,9.484
	c1.384,1.111,3.043,1.652,4.692,1.652c2.148,0,4.28-0.919,5.763-2.695l64.547-77.35c9.757-11.649,14.378-26.399,13.013-41.533
	C486.152,327.647,478.966,313.962,467.282,304.247z"/>
<g>
	<path style="fill:#020201;" d="M158.414,413.51c-13.458,13.613-22.544,30.681-26.274,49.357c-0.811,4.062,1.824,8.012,5.886,8.824
		c0.496,0.099,0.99,0.146,1.477,0.146c3.503,0,6.635-2.467,7.347-6.033c3.153-15.791,10.841-30.228,22.231-41.749
		c2.912-2.946,2.885-7.694-0.061-10.606C166.074,410.536,161.325,410.564,158.414,413.51z"/>
	<path style="fill:#020201;" d="M261.746,416.282c-4.143,0-7.5,3.358-7.5,7.5v55.609c0,4.142,3.357,7.5,7.5,7.5s7.5-3.358,7.5-7.5
		v-55.609C269.246,419.64,265.888,416.282,261.746,416.282z"/>
	<circle style="fill:#020201;" cx="231.74" cy="441.78" r="7.5"/>
	<circle style="fill:#020201;" cx="231.74" cy="471.79" r="7.5"/>
	<circle style="fill:#020201;" cx="281.75" cy="256" r="15"/>
	<circle style="fill:#020201;" cx="181.75" cy="256" r="15"/>
	<path style="fill:#020201;" d="M215.825,275.357c-5.302,1.719-10.22,4.227-14.635,7.434c-4.416,3.208-8.327,7.117-11.61,11.636
		c-2.435,3.351-1.692,8.041,1.66,10.476c3.351,2.435,8.042,1.691,10.476-1.66c4.69-6.455,11.169-11.164,18.736-13.618
		c3.94-1.275,6.098-5.508,4.821-9.448C223.996,276.238,219.765,274.08,215.825,275.357z"/>
	<path style="fill:#020201;" d="M262.306,282.792c-4.415-3.208-9.333-5.715-14.635-7.434c-3.94-1.278-8.17,0.881-9.447,4.821
		c-1.279,3.941,0.883,8.174,4.822,9.448c7.565,2.453,14.045,7.162,18.736,13.618c2.432,3.347,7.124,4.094,10.476,1.659
		c3.351-2.435,4.094-7.125,1.659-10.476C270.632,289.909,266.721,286,262.306,282.792z"/>
	<path style="fill:#020201;" d="M487.517,342.781c-1.365-15.133-8.552-28.818-20.235-38.533c-3.179-2.643-7.899-2.215-10.552,0.96
		L350.488,432.433c-0.012-0.015-0.023-0.03-0.035-0.045c-2.062-2.407-4.683-4.176-7.585-5.232
		c-5.046-10.558-11.513-20.414-19.328-29.374c-2.849-3.192-5.62-6.063-8.399-8.715c6.637-2.566,12.995-5.445,18.978-8.665
		c32.135-17.298,51.64-42.645,55.625-71.939c12.098-0.65,23.442-5.398,32.523-13.747c10.791-9.922,16.98-24.014,16.98-38.661
		c0-18.401-9.376-35.122-25.082-44.729c-12.102-7.402-26.2-9.548-39.483-6.376c0.243-12.041-1.577-23.227-5.435-33.387v-67.181
		c22.959-5.812,40-26.642,40-51.382c0-29.224-23.775-53-53-53h-124.5h-124.5c-29.224,0-53,23.776-53,53s23.776,53,53,53h44.5h60
		h54.5h45.5h42.5v59.448h-52.023c-0.058-0.003-0.115-0.013-0.174-0.015c-0.25-0.008-0.499-0.002-0.744,0.015H109.248v-36.946
		c0-4.142-3.358-7.5-7.5-7.5s-7.5,3.358-7.5,7.5v43.064c-3.859,10.164-5.679,21.351-5.434,33.395
		c-13.318-3.18-27.429-1.034-39.511,6.374c-15.688,9.62-25.055,26.337-25.055,44.72c0,14.648,6.189,28.74,16.981,38.661
		c9.081,8.349,20.42,13.096,32.514,13.748c3.496,26.297,18.895,49.665,42.202,63.48c8.897,5.274,18.266,9.905,28.017,13.882
		c-3.436,2.999-6.715,6.183-9.812,9.531c-0.12,0.13-0.235,0.264-0.345,0.4c-13.814,15.051-23.895,33.329-29.167,52.897
		c-1.078,3.999,1.291,8.115,5.291,9.193c0.653,0.176,1.31,0.26,1.956,0.26c3.308,0,6.335-2.205,7.237-5.551
		c4.689-17.402,13.699-33.656,26.055-47.005c0.113-0.123,0.222-0.248,0.326-0.376c4.567-4.891,9.576-9.376,14.921-13.38
		c21.613,6.903,44.754,10.761,68.612,11.333c2.016,0.048,4.025,0.072,6.032,0.072c22.282,0,43.938-2.985,63.673-8.636
		c4.574,3.742,8.951,7.988,13.553,13.143c5.686,6.52,10.59,13.608,14.641,21.149c-1.573,0.995-3.008,2.225-4.232,3.687l-6.716,8.018
		c-4.705-9.976-11.105-19.161-18.905-27.05c-2.912-2.946-7.661-2.972-10.606-0.061c-2.945,2.913-2.972,7.661-0.06,10.606
		c9.174,9.279,16.052,20.672,19.976,33.029c-0.423,4.733,1.014,9.591,4.315,13.444c1.354,1.581,2.953,2.887,4.71,3.903
		l-14.473,17.331c-1.867,2.236-2.271,5.351-1.035,7.989l3.714,7.928c1.275,2.722,3.978,4.32,6.797,4.32
		c1.065,0,2.148-0.229,3.177-0.71c3.751-1.757,5.367-6.222,3.61-9.973l-1.688-3.604l3.724-4.459
		c1.171,3.048,2.861,5.949,5.097,8.559l0,0c5.066,5.914,12.133,9.501,19.897,10.1c0.766,0.059,1.529,0.088,2.289,0.088
		c6.946,0,13.592-2.449,18.922-7.016l6.339-5.43c7.606-6.517,12.22-15.606,12.99-25.593c0.771-9.987-2.395-19.676-8.912-27.282
		c-3.072-3.587-7.065-6.152-11.479-7.486l2.345-2.808l32.772,26.322c3.187,2.559,7.835,2.098,10.455-1.042l64.547-77.35
		C484.262,372.665,488.883,357.915,487.517,342.781z M357.248,45.5c-4.143,0-7.5,3.358-7.5,7.5c0,20.953-17.047,38-38,38h-8.608
		c9.924-9.637,16.108-23.107,16.108-38c0-4.142-3.357-7.5-7.5-7.5s-7.5,3.358-7.5,7.5c0,20.953-17.047,38-38,38h-54.5
		c-20.953,0-38-17.047-38-38c0-4.142-3.358-7.5-7.5-7.5s-7.5,3.358-7.5,7.5c0,14.893,6.184,28.362,16.108,38h-23.108
		c-20.953,0-38-17.047-38-38c0-4.142-3.358-7.5-7.5-7.5s-7.5,3.358-7.5,7.5c0,14.893,6.184,28.362,16.108,38h-7.608
		c-20.953,0-38-17.047-38-38s17.047-38,38-38h124.5h124.5c20.953,0,38,17.047,38,38s-17.047,38-38,38h-7.608
		c9.924-9.637,16.108-23.107,16.108-38C364.748,48.858,361.39,45.5,357.248,45.5z M356.462,180.448
		c2.899,9.246,3.864,19.565,2.867,30.785c-10.106,6.184-17.811,15.555-21.955,26.794c-0.546-0.479-1.084-0.967-1.617-1.459
		c-15.754-14.565-25.221-34.815-26.384-56.12L356.462,180.448L356.462,180.448z M154.128,180.448
		c-1.195,22.117-11.261,42.906-28.04,57.607c0-0.007-0.001-0.014-0.006-0.022c-4.088-11.222-11.794-20.607-21.917-26.8
		c-0.996-11.22-0.028-21.537,2.87-30.785L154.128,180.448L154.128,180.448z M161.911,376.566c-0.294-0.12-0.594-0.223-0.899-0.305
		c-12.818-4.401-25.389-10.092-37.418-17.222c-21.074-12.492-34.357-34.37-35.532-58.523c-0.307-6.305,2.294-12.927,5.048-19.938
		c3.018-7.682,6.138-15.626,6.138-24.524c0-12.407-10.093-22.5-22.5-22.5s-22.5,10.093-22.5,22.5c0,4.142,3.358,7.5,7.5,7.5
		s7.5-3.358,7.5-7.5c0-4.136,3.364-7.5,7.5-7.5s7.5,3.364,7.5,7.5c0,6.057-2.477,12.363-5.1,19.04
		c-2.303,5.863-4.655,11.872-5.635,18.313c-8.233-0.681-15.925-4.027-22.133-9.735c-7.71-7.088-12.133-17.155-12.133-27.618
		c0-13.124,6.69-25.061,17.896-31.932c11.224-6.883,24.897-7.446,36.575-1.503c0.18,0.091,0.365,0.166,0.55,0.242
		c8.246,4.367,14.529,11.551,17.719,20.307c1.702,4.672,5.593,8.201,10.408,9.438c1.23,0.316,2.478,0.471,3.718,0.471
		c3.559,0,7.041-1.275,9.777-3.667c10.768-9.412,19.198-20.95,24.892-33.709c1.079,3.07,3.958,5.019,7.062,5.019
		c0.768,0,1.549-0.119,2.319-0.369c7.589-2.465,15.598-2.467,23.163-0.004c3.94,1.284,8.172-0.871,9.453-4.81
		c1.283-3.938-0.871-8.171-4.81-9.453c-10.6-3.451-21.817-3.451-32.441,0.001c-0.429,0.139-0.833,0.32-1.218,0.525
		c2.778-8.391,4.417-17.188,4.827-26.162h125.218c0.414,8.959,2.072,17.766,4.865,26.178c-0.394-0.213-0.809-0.399-1.251-0.543
		c-10.6-3.451-21.817-3.451-32.441,0.001c-3.939,1.28-6.096,5.511-4.815,9.45c1.03,3.169,3.97,5.185,7.131,5.185
		c0.768,0,1.549-0.119,2.319-0.369c7.589-2.465,15.598-2.467,23.163-0.004c3.894,1.269,8.068-0.824,9.402-4.675
		c5.336,11.963,13.064,22.867,22.848,31.913c0.668,0.617,1.342,1.227,2.027,1.826c2.736,2.392,6.219,3.666,9.777,3.666
		c1.239,0,2.488-0.155,3.718-0.471c4.814-1.237,8.705-4.766,10.408-9.438c3.193-8.765,9.487-15.956,17.698-20.297
		c0.193-0.079,0.386-0.158,0.574-0.253c11.628-5.949,25.296-5.385,36.561,1.504c11.214,6.859,17.908,18.797,17.908,31.933
		c0,10.463-4.423,20.53-12.134,27.62c-6.206,5.706-13.894,9.051-22.132,9.733c-0.981-6.438-3.331-12.445-5.634-18.306
		c-2.623-6.679-5.101-12.987-5.101-19.046c0-4.136,3.364-7.5,7.5-7.5s7.5,3.364,7.5,7.5c0,4.142,3.357,7.5,7.5,7.5
		s7.5-3.358,7.5-7.5c0-12.407-10.094-22.5-22.5-22.5s-22.5,10.093-22.5,22.5c0,8.9,3.121,16.846,6.14,24.53
		c2.753,7.01,5.354,13.631,5.05,19.936c-1.294,26.882-18.493,50.56-48.428,66.674C286.518,388.989,221.611,396.765,161.911,376.566z
		 M324.534,461.883c-0.557-0.028-1.602-0.138-2.438-1.113c-0.627-0.732-0.868-1.671-0.728-2.565c0.016-0.07,0.034-0.14,0.048-0.211
		c0.109-0.48,0.321-0.942,0.656-1.343l12.128-14.478c0.824-0.984,1.872-1.137,2.424-1.14c0.548-0.002,1.602,0.137,2.438,1.113
		c0.835,0.975,0.979,2.314,0.452,3.427l-13.079,15.663C325.729,461.776,324.974,461.881,324.534,461.883z M369.82,472.807
		c-0.462,5.992-3.229,11.446-7.793,15.355l-6.339,5.43c-2.871,2.46-6.537,3.655-10.298,3.363c-3.771-0.291-7.201-2.032-9.661-4.903
		l0,0c-4.521-5.276-4.563-12.972-0.102-18.298l14.437-17.236c1.785-2.132,4.404-3.364,7.186-3.379c0.019,0,0.035,0,0.054,0
		c2.761,0,5.372,1.201,7.17,3.299C368.384,461.002,370.283,466.815,369.82,472.807z M462.996,374.693l-59.839,71.709l-26.811-21.533
		l86.675-103.792c5.444,6.476,8.78,14.445,9.557,23.052C473.583,355.262,470.182,366.113,462.996,374.693z"/>
</g>
<g>
</g>
<g>
</g>
<g>
</g>
<g>
</g>
<g>
</g>
<g>
</g>
<g>
</g>
<g>
</g>
<g>
</g>
<g>
</g>
<g>
</g>
<g>
</g>
<g>
</g>
<g>
</g>
<g>
</g>
</svg>
